<?xml version="1.0" encoding="UTF-8"?>
<svg width="156px" height="34px" viewBox="0 0 156 34" version="1.1" xmlns="http://www.w3.org/2000/svg" xmlns:xlink="http://www.w3.org/1999/xlink">
    <!-- Generator: Sketch 48.2 (47327) - http://www.bohemiancoding.com/sketch -->
    <title>cs_logo</title>
    <desc>Created with Sketch.</desc>
    <defs>
        <linearGradient x1="99.164109%" y1="100%" x2="57.0126488%" y2="3.02496189%" id="linearGradient-1">
            <stop stop-color="#F57C1F" offset="0%"></stop>
            <stop stop-color="#FFD300" offset="100%"></stop>
        </linearGradient>
    </defs>
    <g id="general_short" stroke="none" stroke-width="1" fill="none" fill-rule="evenodd" transform="translate(-170.000000, -51.000000)">
        <g id="cs_logo" transform="translate(170.000000, 51.000000)">
            <path d="M6.01966961,1 C2.69509789,1 0,3.34022977 0,6.2289481 L0,28.7710519 C0,31.6589202 2.69406086,34 6.01966961,34 L149.668953,34 C152.993525,34 155.688623,31.6597702 155.688623,28.7710519 L155.688623,6.2289481 C155.688623,3.34107981 152.994562,1 149.668953,1 L6.01966961,1 L6.01966961,1 Z" id="Rectangle-1" fill="url(#linearGradient-1)"></path>
            <path d="M155.876814,6.06705502 L155.876814,28.8773851 C155.876814,31.6961553 153.582113,33.9838188 150.751441,33.9838188 L84.4696911,33.9838188 C87.2984136,33.9838188 89.5927894,31.6961553 89.5927894,28.8773851 L89.5927894,6.06705502 C89.5927894,3.24794822 87.2984136,0.96028479 84.4696911,0.96028479 L150.751441,0.96028479 C153.582113,0.96028479 155.876814,3.24794822 155.876814,6.06705502" id="Fill-1"></path>
            <polygon id="Fill-4" fill="#EEA72D" points="84.4696911 0.997980583 85.1902791 0.997980583 85.1902791 33.9838188 84.4696911 33.9838188"></polygon>
            <polygon id="Fill-5" fill="#EDA72C" points="85.1649269 0.997980583 86.1760904 0.997980583 86.1760904 33.9838188 85.1649269 33.9838188"></polygon>
            <path d="M89.7127249,6.06705502 L89.7127249,28.8773851 C89.7127249,31.6961553 87.417699,33.9838188 84.5889765,33.9838188 L5.43447552,33.9838188 C2.60607803,33.9838188 0.311377246,31.6961553 0.311377246,28.8773851 L0.311377246,6.06705502 C0.311377246,3.24794822 2.60607803,0.96028479 5.43447552,0.96028479 L84.5889765,0.96028479 C87.417699,0.96028479 89.7127249,3.24794822 89.7127249,6.06705502" id="Fill-6" fill="#0B0B0A"></path>
            <path d="M155.524483,29.5373981 C155.197505,32.045178 153.045491,33.9838188 150.440064,33.9838188 L84.1583139,33.9838188 C85.8591877,33.9838188 87.3686198,33.1568673 88.2995012,31.8816052 L151.637468,31.8816052 C153.447227,31.8816052 154.790569,30.9469515 155.524483,29.5373981" id="Fill-7" fill="#D35A1C"></path>
            <path d="M88.4204118,31.8842977 C87.4898554,33.1568673 85.9810733,33.9838188 84.2775993,33.9838188 L5.12309827,33.9838188 C2.29470079,33.9838188 0,31.6961553 0,28.8773851 L0,6.06705502 C0,3.24794822 2.29470079,0.96028479 5.12309827,0.96028479 C3.6377183,1.57250485 2.54074732,2.86661489 2.54074732,4.81838188 L2.54074732,26.7751715 C2.54074732,30.2731392 3.51323241,31.8816052 7.66417061,31.8816052 L82.7840936,31.8842977 L86.8183466,31.8816052 L88.4204118,31.8842977" id="Fill-8" fill="#56514E"></path>
            <path d="M20.0708312,7.57286731 L20.0708312,11.8607638 L16.3681072,11.8607638 C13.4438263,11.8607638 11.7842311,13.7751715 11.7842311,17.1741877 C11.7842311,20.5163236 13.4152238,22.3479353 16.3970347,22.3479353 L20.0708312,22.3479353 L20.0708312,26.632466 L15.8344105,26.632466 C10.4646157,26.632466 7.00598802,22.8342783 7.00598802,16.9163754 C7.00598802,14.287767 7.81985924,12.0031327 9.3965722,10.2876375 C11.2216069,8.28706796 13.2179316,7.57286731 16.902454,7.57286731 L20.0708312,7.57286731 L20.0708312,7.57286731 Z M77.051892,26.632466 L77.051892,11.8607638 L73.3416924,11.8607638 L73.3416924,7.57286731 L85.54326,7.57286731 L85.54326,11.8607638 L81.8327354,11.8607638 L81.8327354,26.632466 L77.051892,26.632466 L77.051892,26.632466 Z M21.8493868,26.632466 L21.8493868,7.57286731 L27.65732,7.57286731 C30.7788932,7.57286731 32.1557136,7.8872233 33.4210493,8.94506149 C34.8547498,10.1452686 35.726151,12.0889579 35.726151,14.1453981 C35.726151,17.3189126 33.9004663,19.659754 31.0590677,20.1464337 L36.148688,26.632466 L30.6648082,26.632466 L26.4309877,20.4597799 L26.4309877,26.632466 L21.8493868,26.632466 L21.8493868,26.632466 Z M26.4309877,17.1472621 L27.9943745,17.1472621 C29.9620967,17.1472621 31.1445501,16.1456311 31.1445501,14.4893722 C31.1445501,12.7735405 30.0761817,11.8607638 28.0512545,11.8607638 L26.4309877,11.8607638 L26.4309877,17.1472621 L26.4309877,17.1472621 Z M36.9703599,26.632466 L36.9703599,7.57286731 L48.2384459,7.57286731 L48.2384459,11.8607638 L41.554236,11.8607638 L41.554236,14.8033916 L47.4762542,14.8033916 L47.4762542,19.0885955 L41.554236,19.0885955 L41.554236,22.3479353 L48.2384459,22.3479353 L48.2384459,26.632466 L36.9703599,26.632466 L36.9703599,26.632466 Z M49.8564374,26.632466 L49.8564374,7.57286731 L55.7732552,7.57286731 C59.4548523,7.57286731 61.451502,8.28706796 63.2788119,10.2876375 C64.8529246,12.0031327 65.6697211,14.287767 65.6697211,16.9163754 C65.6697211,22.8342783 62.2110935,26.632466 56.8412986,26.632466 L49.8564374,26.632466 L49.8564374,26.632466 Z M54.6376058,22.3479353 L56.2786744,22.3479353 C59.2601603,22.3479353 60.891153,20.5163236 60.891153,17.1741877 C60.891153,13.7751715 59.2318828,11.8607638 56.3072769,11.8607638 L54.6376058,11.8607638 L54.6376058,22.3479353 L54.6376058,22.3479353 Z M67.0101384,7.57286731 L71.7883815,7.57286731 L71.7883815,26.632466 L67.0101384,26.632466 L67.0101384,7.57286731 Z" id="Fill-9" fill="#FFFFFE"></path>
            <path d="M141.938295,17.1607249 L143.626167,17.1607249 C145.596815,17.1607249 146.779268,16.1590939 146.779268,14.4998058 C146.779268,12.7843107 145.707649,11.8688414 143.683372,11.8688414 L141.938295,11.8688414 L141.938295,17.1607249 L141.938295,17.1607249 Z M137.351493,26.6570356 L137.351493,7.578589 L143.289113,7.578589 C146.413611,7.578589 147.790757,7.89260841 149.057718,8.9504466 C150.491743,10.1533463 151.36607,12.0970356 151.36607,14.1561683 C151.36607,17.3323754 149.537785,19.676246 146.693786,20.1646084 L151.788281,26.6570356 L146.299526,26.6570356 L141.938295,20.4789644 L141.938295,26.6570356 L137.351493,26.6570356 L137.351493,26.6570356 Z M108.276724,13.1279482 L103.521883,13.1279482 C103.352543,11.8122977 102.847774,11.2673916 101.804758,11.2673916 C100.905404,11.2673916 100.17409,11.9250485 100.17409,12.7550291 C100.17409,13.4126861 100.539747,13.9279741 101.382546,14.4143172 C101.496306,14.4998058 101.636718,14.5563495 101.776155,14.6152492 L102.536072,14.9858123 L103.295988,15.3297864 L104.083857,15.6730874 C107.151151,17.1311068 108.445089,18.7049061 108.445089,21.0777217 C108.445089,24.8260971 106.026552,27.0275987 101.890565,27.0275987 C97.6950983,27.0275987 95.050992,24.6833916 95.050992,20.9646343 L95.050992,20.3631845 L99.863038,20.3631845 C99.863038,21.9369838 100.622955,22.9382783 101.83336,22.9382783 C102.873126,22.9382783 103.690248,22.1382524 103.690248,21.1369579 C103.690248,20.2507702 103.070094,19.5927767 101.693598,19.0182524 C98.7667171,17.8483366 98.2606478,17.5901877 97.2754866,16.7874693 C96.1213106,15.8746926 95.3880465,14.3577735 95.3880465,12.8704725 C95.3880465,9.66733981 98.2606478,7.17840777 101.94517,7.17840777 C104.0013,7.17840777 105.88614,8.00805178 107.011063,9.37990939 C107.856462,10.3815405 108.165239,11.3266278 108.276724,13.1279482 L108.276724,13.1279482 Z M112.655832,26.6570356 L112.655832,11.8688414 L108.942707,11.8688414 L108.942707,7.578589 L121.154676,7.578589 L121.154676,11.8688414 L117.441876,11.8688414 L117.441876,26.6570356 L112.655832,26.6570356 L112.655832,26.6570356 Z M130.856775,23.9446214 L124.478742,23.8833657 L123.59694,26.6570356 L118.660733,26.6570356 L125.863363,7.578589 L129.503357,7.578589 L136.648782,26.6570356 L131.686573,26.6570356 L130.856775,23.9446214 L130.856775,23.9446214 Z M125.684272,20.0229126 L129.672371,20.0229126 L127.696523,13.4985113 L125.684272,20.0229126 L125.684272,20.0229126 Z" id="Fill-10" fill="#0B0B0A"></path>
        </g>
    </g>
</svg>